<svg width="318" height="318" viewBox="0 0 318 318" fill="none" xmlns="http://www.w3.org/2000/svg">
<g clip-path="url(#clip0_85_253)">
<path d="M233.789 28.5953C272.817 28.5953 304.455 60.2261 304.455 99.2446C304.455 138.263 272.817 169.894 233.789 169.894C194.761 169.894 163.122 138.263 163.122 99.245C163.122 60.2265 194.761 28.5953 233.789 28.5953ZM233.789 170.089C194.716 170.089 162.927 138.308 162.927 99.2446C162.927 60.1808 194.716 28.4001 233.789 28.4001C272.862 28.4001 304.65 60.1808 304.65 99.2446C304.65 138.308 272.862 170.089 233.789 170.089ZM233.789 28.7904C194.931 28.7904 163.318 60.3963 163.318 99.2446C163.318 138.093 194.931 169.699 233.789 169.699C272.647 169.699 304.26 138.093 304.26 99.2446C304.26 60.3963 272.647 28.7904 233.789 28.7904ZM221.454 156.631C218.914 155.784 215.358 153.245 214.681 150.367C214.003 147.489 208.585 147.997 208.585 147.997C209.601 142.579 208.924 138.35 209.263 135.64C209.601 132.93 215.018 131.069 213.656 129.884C212.293 128.699 212.141 125.821 212.141 125.821C214.342 121.928 213.496 119.219 213.496 119.219C211.125 112.617 203.336 113.633 203.336 113.633C205.876 111.602 204.352 110.248 204.352 110.248C201.956 109.229 199.636 108.041 197.41 106.693C193.177 108.386 193.346 103.646 193.346 103.646C190.527 104.253 187.585 103.832 185.049 102.461C175.229 103.646 168.286 112.28 168.286 112.28C169.81 114.988 172.349 117.358 173.535 121.929C174.721 126.499 177.429 127.852 177.429 127.852C177.429 127.852 182.509 128.867 190.298 140.04C198.087 151.213 194.362 142.071 198.764 147.658C203.167 153.244 203.843 154.261 206.383 154.43C208.923 154.599 217.728 159.001 221.453 159.001C225.178 159.001 223.994 157.477 221.454 156.631ZM172.52 106.863C172.646 109.529 174.34 105.678 174.34 105.678C173.327 104.266 172.239 102.91 171.081 101.615C171.081 101.615 173.875 98.3559 169.938 96.2398C169.938 96.2398 173.324 91.3312 172.646 90.0616C172.646 90.0616 172.258 90.1631 167.99 93.1929C166.382 94.3344 167.059 87.4374 167.059 87.4374C168.329 86.1678 171.123 85.1523 172.012 83.8827C172.901 82.6131 174.366 80.785 177.345 82.4862C179.123 83.5018 182.933 80.8357 182.933 80.8357C182.933 80.8357 185.219 84.5177 184.584 86.5491C184.584 86.5491 187.25 86.5491 187.505 81.5976C187.505 81.5976 189.282 78.2966 189.79 76.3924C192.821 74.9234 195.711 73.1807 198.426 71.1872C198.426 71.1872 201.778 74.2782 201.092 67.8862C200.711 64.3315 206.299 62.681 206.299 62.681C206.299 62.681 205.156 55.1903 204.14 53.7939C204.14 53.7939 199.187 60.2686 200.076 53.7939C200.965 47.3191 194.362 54.5557 194.362 54.5557C194.362 54.5557 193.219 59.7609 187.885 59.634L187.504 52.1434C187.504 52.1434 196.139 48.7155 195.505 46.6841C194.869 44.6527 201.219 42.3676 201.219 42.3676C201.219 42.3676 201.727 45.1608 203.505 45.4145C205.283 45.6686 200.838 52.1434 204.902 49.731C208.965 47.3187 210.108 46.1763 210.108 46.1763C210.108 46.1763 212.267 40.9711 212.14 39.9552C212.14 39.9552 222.425 37.162 223.823 39.1934C225.221 41.2248 217.347 43.2562 217.347 43.2562C217.347 43.2562 215.189 46.5572 215.696 48.3346C216.204 50.1119 213.157 48.8424 210.871 52.5243C210.871 52.5243 217.509 54.505 223.99 48.2078C227.126 45.1608 226.237 43.2562 226.237 43.2562C226.237 43.2562 230.802 39.9552 233.789 39.3206C236.776 38.6856 233.789 34.2423 233.789 34.2423C233.789 34.2423 238.3 32.1125 237.031 28.6718C237.031 28.6718 220.239 27.0736 202.157 36.0544C184.076 45.034 176.079 58.1592 174.256 61.1655C172.432 64.1719 165.12 77.2463 164.693 84.3733C164.266 91.5002 166.044 94.1666 165.282 95.6899C164.52 97.2136 167.695 97.3404 167.187 99.2446C166.679 101.149 165.832 103.18 168.288 104.704C170.743 106.228 172.393 104.196 172.52 106.863ZM280.017 101.213C281.476 98.4195 286.557 95.4362 286.557 95.4362C286.557 95.4362 288.398 93.8493 287.192 92.5797C285.986 91.3101 285.287 91.6274 283.319 93.0875C281.35 94.5475 277.541 92.0084 274.684 87.7551C271.826 83.5018 271.636 84.6445 271.636 84.6445C271.636 84.6445 272.779 77.027 264.524 80.8994C262.619 81.8517 258.937 80.1375 256.778 79.0584C254.619 77.9793 253.667 80.5821 253.603 80.8357C253.54 81.0898 249.349 81.9149 248.714 80.2644C248.079 78.6139 252.079 78.7407 249.159 76.392C249.159 76.392 241.92 77.9157 239.698 77.7884C237.476 77.6616 239.698 79.3753 234.618 79.5658C229.539 79.7562 231.634 84.8346 231.634 84.8346C231.634 84.8346 228.777 86.7392 228.015 89.0243C227.553 90.3887 226.561 91.51 225.263 92.1348V95.7531C225.263 95.7531 221.56 97.4672 225.263 100.641C225.856 102.863 226.068 104.577 225.263 104.831C225.263 104.831 225.179 108.047 239.232 107.285C243.719 107.285 244.989 108.047 245.412 110.84C245.835 113.633 248.799 116.934 248.968 118.204C249.137 119.473 251.677 122.012 247.36 126.16C247.36 126.16 247.38 127.684 249.095 128.953C250.809 130.223 253.412 137.206 253.412 137.206C253.412 137.206 258.048 141.776 261.286 142.919C263.218 143.605 265.285 143.822 267.318 143.554C267.318 143.554 267.763 141.967 268.27 140.317C268.778 138.666 271.318 138.412 272.144 132.318C272.969 126.224 273.477 120.257 272.652 118.162C271.826 116.068 270.382 111.179 273.072 108.132C275.763 105.085 278.558 104.006 280.017 101.213ZM279.153 129.449C279.29 129.039 279.438 128.553 279.59 128.036C279.984 126.719 280.475 125.081 280.979 124.282C281.808 122.97 282.016 118.874 282.049 118.066C282.053 117.97 282.038 117.874 282.007 117.784C281.868 117.386 281.433 117.177 281.036 117.316C279.736 117.841 278.547 118.605 277.531 119.57C274.897 121.998 275.315 123.608 275.651 124.903C275.784 125.303 275.845 125.724 275.83 126.145C275.759 126.839 275.075 127.697 274.527 128.386C273.879 129.2 273.41 129.787 273.565 130.447C273.643 130.769 273.867 131.035 274.171 131.167C274.641 131.365 275.149 131.461 275.66 131.448C276.306 131.452 276.948 131.327 277.547 131.082C278.295 130.798 278.882 130.201 279.153 129.449ZM301.729 79.7414C301.095 77.653 296.895 65.2045 291.546 58.5276C286.197 51.8506 280.499 45.2404 274.332 41.372C268.165 37.5035 264.816 35.3136 258.702 33.1109C252.587 30.9085 254.683 33.1109 254.683 33.1109C255.703 34.021 256.956 34.6322 258.302 34.8765C258.302 34.8765 256.143 36.8123 255.73 38.8437C255.318 40.8751 253.349 39.4471 253.762 38.4628C254.175 37.4785 252.746 34.2415 250.587 34.1783C248.428 34.1147 246.682 36.4634 245.793 38.0507C244.904 39.6379 244.968 41.5421 241.729 42.1135C238.491 42.6849 238.935 47.1282 238.935 47.1282L241.92 45.9855L242.554 50.2388C242.554 50.2388 245.031 49.9847 245.856 46.43C245.92 45.0336 244.269 44.4622 245.793 43.1926C247.317 41.923 250.301 39.7648 250.301 39.1298C250.301 39.1298 250.809 43.8272 249.094 45.224C247.38 46.6205 248.396 48.0805 250.301 47.1918C252.205 46.3032 253.095 45.2873 253.666 45.9223C254.237 46.5573 250.809 48.906 250.809 48.906C250.809 48.906 250.682 52.8416 247.761 52.6511C245.856 52.778 245.157 54.9362 245.157 54.9362C245.157 54.9362 242.554 55.1267 242.3 53.0953C242.046 51.0638 240.967 50.5561 240.776 53.1589C240.586 55.7617 241.729 58.9354 238.363 60.7764C234.998 62.6174 233.03 62.3001 233.03 62.3001C233.03 62.3001 232.642 63.4428 233.788 65.2202C234.934 66.9975 233.411 70.8699 230.68 67.5689C227.95 64.2679 227.209 71.0603 227.209 71.0603C227.209 71.0603 224.998 73.2822 225.029 74.9327C225.06 76.5832 225.651 77.7365 226.532 78.0011C228.558 78.6104 228.818 80.5403 229.834 79.9479C230.85 79.3554 230.71 77.9504 234.66 78.0011C236.438 78.0011 236.633 74.8691 237.255 73.8536C237.876 72.8381 240.501 68.7752 243.549 69.283C245.158 69.5371 244.226 70.8914 248.121 70.8914C249.899 70.9757 246.512 72.753 247.19 73.3458C247.867 73.9387 248.714 75.3773 249.814 73.7689C250.915 72.1606 249.899 70.1299 252.354 69.7911C253.539 69.6222 253.285 72.6691 253.709 73.3458C254.132 74.0226 255.741 74.8695 256.672 70.8914C257.603 66.9136 259.127 68.6063 259.889 69.8758C260.651 71.1454 262.767 71.4826 265.307 70.9749C265.307 70.9749 267.191 76.0111 268.334 76.7093C269.477 77.4075 270.556 78.9768 272.207 80.0965C273.858 81.2163 276.588 85.9137 278.239 86.866C278.239 88.326 279.192 92.7062 281.287 91.1193C283.382 89.5324 283.319 88.8974 284.97 87.3741C286.176 86.6123 289.478 87.9455 290.938 84.0099C287.89 80.4552 288.652 79.8573 285.033 79.9342C283.699 77.4715 283.572 76.9638 284.334 76.3924C285.096 75.821 286.361 78.3602 287.602 78.297C288.843 78.2333 290.874 76.3924 292.144 76.3924C293.414 76.3924 292.843 78.1065 294.113 78.3602C295.383 78.6143 295.573 79.3757 296.208 81.3439C296.843 83.3117 299.255 83.629 299.636 87.1841C300.229 89.5113 301.922 90.3582 301.922 86.6342C301.923 82.9085 302.363 81.8294 301.729 79.7414ZM233.259 55.0225C233.224 55.0556 229.853 58.3282 230.792 59.4959C230.948 59.7027 231.193 59.8226 231.452 59.819C231.881 59.7687 232.287 59.6017 232.627 59.3363C234.528 58.0667 234.55 55.6727 234.55 55.5712C234.55 55.3741 234.474 55.1844 234.337 55.0424C234.045 54.7391 233.562 54.7302 233.259 55.0225ZM234.703 58.5452C234.749 58.8472 234.971 59.0923 235.267 59.1684C235.329 59.1841 235.393 59.1923 235.456 59.1923C235.694 59.1923 235.918 59.0814 236.062 58.8925C236.091 58.8543 238.93 55.1079 237.825 54.0979C237.168 53.4973 236.374 54.2228 236.035 54.5331C234.347 56.0751 234.688 58.4437 234.703 58.5452ZM184.888 97.5671C184.687 97.9367 184.824 98.3992 185.194 98.6002C186.143 99.1052 187.008 99.7543 187.759 100.524C187.903 100.705 188.121 100.81 188.352 100.81V100.808C188.525 100.808 188.693 100.75 188.827 100.641C189.156 100.379 189.209 99.8991 188.946 99.5709C188.014 98.4063 186.007 97.308 185.921 97.2616C185.552 97.061 185.089 97.1976 184.888 97.5671ZM187.717 96.2398C187.717 95.8191 187.375 95.478 186.955 95.478C186.724 95.4089 186.515 95.2809 186.349 95.1068C186.05 94.8098 185.568 94.8106 185.271 95.1088C184.974 95.4069 184.975 95.8889 185.273 96.1859C185.719 96.6492 186.315 96.938 186.955 97.0016C187.375 97.0016 187.717 96.6605 187.717 96.2398ZM189.909 94.0277C189.972 93.6116 189.685 93.2237 189.269 93.1609C189.234 93.1558 185.745 92.5957 184.971 90.1709C184.747 89.4575 184.569 88.73 184.441 87.9931C184.208 86.7595 184.04 85.8688 182.544 84.8955C182.539 84.892 182.534 84.8888 182.528 84.8853C182.17 84.6648 181.7 84.7764 181.48 85.1347C181.085 85.7556 180.61 86.3216 180.066 86.8176C179.739 87.0873 179.56 87.4971 179.585 87.9202C179.637 88.8627 180.685 89.7377 181.198 90.1116C181.841 91.3445 183.266 93.8442 184.413 94.1787C185.835 94.5007 187.288 94.672 188.746 94.69C188.909 94.6923 189.072 94.6861 189.235 94.6716C189.58 94.6353 189.857 94.3707 189.909 94.0277ZM290.43 138.539C289.414 140.634 282.874 142.094 282.874 142.094C284.78 145.268 278.684 148.759 278.684 148.759C278.684 148.759 276.715 150.663 276.906 151.487C279.319 150.725 278.684 151.741 279.635 153.01C284.141 150.215 292.161 139.078 294.135 136.027C292.76 135.737 291.446 136.444 290.43 138.539ZM228.224 47.419C226.645 47.9513 225.156 48.7186 223.807 49.6951C223.618 49.8391 223.507 50.0635 223.507 50.3016C223.507 50.7223 223.848 51.0634 224.269 51.0634C224.435 51.0634 224.596 51.0092 224.729 50.9089C225.943 50.0382 227.28 49.3505 228.694 48.8677C228.703 48.865 228.712 48.8623 228.721 48.8591C229.118 48.7221 229.33 48.2885 229.193 47.8908C229.055 47.4931 228.622 47.282 228.224 47.419ZM233.789 170.089C194.716 170.089 162.927 138.308 162.927 99.2446C162.927 60.1808 194.716 28.4001 233.789 28.4001C272.862 28.4001 304.65 60.1808 304.65 99.2446C304.65 138.308 272.862 170.089 233.789 170.089ZM233.789 28.7904C194.931 28.7904 163.318 60.3963 163.318 99.2446C163.318 138.093 194.931 169.699 233.789 169.699C272.647 169.699 304.26 138.093 304.26 99.2446C304.26 60.3963 272.647 28.7904 233.789 28.7904Z" fill="#D3D5DD"/>
</g>
<g clip-path="url(#clip1_85_253)">
<path d="M28.3725 207.603L27.4102 209.438L28.3269 209.922C28.3536 209.936 31.0449 211.355 35.3162 213.52C50.5345 221.234 79.4996 222.671 89.6758 216.224C89.9616 216.043 90.226 215.859 90.4707 215.673C89.7722 228.727 91.0983 256.34 106.569 259.545C119.817 262.29 123.161 251.364 126.112 241.726C128.055 235.374 129.911 229.367 134.171 227.707C137.171 226.537 141.273 227.518 146.713 230.705C166.476 242.285 176.573 233.947 179.995 229.825C185.658 223.005 186.56 212.298 181.925 206.913L181.249 206.126L179.682 207.479L180.359 208.265C184.312 212.859 183.38 222.502 178.402 228.497C171.879 236.352 160.709 236.505 147.755 228.915C141.734 225.387 137.044 224.36 133.417 225.774C133.292 225.822 133.168 225.874 133.048 225.928C128.111 228.116 126.177 234.434 124.133 241.114C121.18 250.763 118.39 259.875 106.984 257.513C103.393 256.769 100.399 254.36 98.0869 250.354C91.8778 239.595 92.1073 220.333 92.7201 213.072C93.1953 212.115 93.3216 211.208 93.3022 210.462C93.2898 209.989 93.2605 208.88 92.2291 208.827C91.1502 208.771 91.0147 209.857 90.8554 211.113C90.8061 211.507 90.7566 211.95 90.7095 212.434C90.2698 213.164 89.5546 213.844 88.5682 214.47C79.8641 219.982 51.8838 219.595 36.2482 211.67C31.9932 209.513 29.3157 208.101 29.289 208.087L28.3725 207.603Z" fill="#D3D5DD"/>
<path d="M26.9038 204.9L24.338 209.793L36.9872 216.317C37.4419 216.551 37.999 216.37 38.2288 215.914L39.8852 212.624C40.1125 212.172 39.9334 211.62 39.4832 211.388L26.9038 204.9Z" fill="white"/>
<path d="M26.7992 204.662C26.7477 204.685 26.703 204.725 26.6749 204.779L24.1091 209.672C24.0774 209.733 24.0707 209.805 24.0915 209.871C24.1124 209.937 24.1588 209.992 24.2199 210.024L36.8686 216.548C37.4288 216.837 38.1761 216.595 38.4595 216.032L40.1158 212.742C40.406 212.165 40.1749 211.455 39.601 211.158L27.0223 204.669C26.9498 204.632 26.8678 204.632 26.7992 204.662ZM24.6891 209.682L27.0146 205.248L39.3649 211.619C39.6871 211.785 39.8167 212.183 39.6542 212.507L37.9979 215.797C37.8377 216.115 37.4215 216.25 37.1054 216.087L24.6891 209.682Z" fill="#D3D5DD"/>
<path d="M30.1985 206.625L27.6327 211.517L35.1403 215.375L37.6245 210.44L30.1985 206.625Z" fill="white"/>
<path d="M30.0932 206.387C30.0417 206.41 29.997 206.45 29.9689 206.504L27.4031 211.397C27.3714 211.458 27.3647 211.53 27.3855 211.596C27.4064 211.662 27.4528 211.717 27.5144 211.749L35.0219 215.606C35.0835 215.638 35.1544 215.643 35.2202 215.622C35.2847 215.601 35.3401 215.554 35.3707 215.493L37.8551 210.558C37.9193 210.431 37.8684 210.275 37.7418 210.211L30.3158 206.395C30.2438 206.357 30.1623 206.357 30.0932 206.387ZM27.9834 211.406L30.3084 206.972L37.2777 210.553L35.0262 215.025L27.9834 211.406Z" fill="#D3D5DD"/>
</g>
<g clip-path="url(#clip2_85_253)">
<path d="M159.294 232.466L149.259 225.351L129.843 211.943C126.666 209.749 126.132 205.252 128.706 202.37L136.661 193.461L179.888 215.024L159.294 232.466Z" fill="#D3D5DD"/>
<path d="M159.309 232.816L180.387 214.964L136.597 193.12L128.502 202.186C127.223 203.619 126.618 205.537 126.846 207.448C127.073 209.359 128.109 211.081 129.688 212.171L149.104 225.579L159.309 232.816ZM179.391 215.084L159.279 232.118L149.418 225.126L130 211.716C128.551 210.715 127.601 209.135 127.392 207.383C127.184 205.629 127.738 203.87 128.912 202.555L136.728 193.803L179.391 215.084Z" fill="#D3D5DD"/>
<path d="M141.121 173.771H125.674V204.175C125.674 206.448 127.471 208.31 129.735 208.381L143.3 208.807V175.959C143.3 174.75 142.324 173.771 141.121 173.771Z" fill="#D3D5DD"/>
<path d="M143.3 209.083C143.371 209.083 143.44 209.056 143.491 209.005C143.545 208.953 143.575 208.882 143.575 208.807V175.959C143.575 174.6 142.474 173.495 141.121 173.495H125.673C125.521 173.495 125.398 173.619 125.398 173.771V204.175C125.398 206.612 127.299 208.581 129.726 208.658L143.291 209.083C143.294 209.083 143.297 209.083 143.3 209.083ZM141.121 174.048C142.17 174.048 143.024 174.905 143.024 175.959V208.522L129.744 208.105C127.616 208.038 125.949 206.312 125.949 204.176V174.048H141.121Z" fill="#D3D5DD"/>
<path d="M177.519 222.588L170.399 214.931C170.347 214.875 170.299 214.814 170.256 214.75L161.118 201.097C157.719 196.019 159.61 189.096 165.113 186.468L171.025 183.645C171.601 183.369 172.289 183.507 172.716 183.983L200.932 215.376C201.663 216.19 201.264 217.491 200.205 217.753L178.919 223.006C178.411 223.131 177.876 222.971 177.519 222.588Z" fill="#D3D5DD"/>
<path d="M178.574 223.324C178.712 223.324 178.85 223.307 178.984 223.274L200.27 218.021C200.863 217.874 201.324 217.437 201.503 216.852C201.682 216.266 201.544 215.645 201.136 215.19L172.92 183.797C172.423 183.243 171.578 183.074 170.907 183.395L164.995 186.218C162.299 187.505 160.302 189.901 159.512 192.79C158.722 195.68 159.225 198.763 160.889 201.251L170.028 214.905C170.079 214.981 170.135 215.053 170.198 215.119L177.319 222.776C177.642 223.124 178.1 223.324 178.574 223.324ZM171.645 183.781C171.975 183.781 172.291 183.922 172.512 184.168L200.727 215.561C201.005 215.87 201.098 216.292 200.976 216.69C200.854 217.088 200.541 217.385 200.139 217.484L178.852 222.738C178.761 222.76 178.667 222.771 178.573 222.771C178.251 222.771 177.94 222.636 177.72 222.399L170.599 214.742C170.557 214.697 170.518 214.648 170.483 214.595L161.345 200.943C159.771 198.589 159.295 195.672 160.042 192.937C160.789 190.203 162.68 187.936 165.231 186.718L171.142 183.895C171.302 183.819 171.47 183.781 171.645 183.781Z" fill="#D3D5DD"/>
<path d="M172.241 158.843H156.52V184.826C156.52 189.714 160.467 193.676 165.336 193.676H174.146V160.754C174.146 159.698 173.293 158.843 172.241 158.843Z" fill="#D3D5DD"/>
<path d="M165.336 193.952H174.146C174.298 193.952 174.421 193.828 174.421 193.676V160.755C174.421 159.548 173.443 158.566 172.241 158.566H156.52C156.368 158.566 156.244 158.69 156.244 158.843V184.826C156.244 189.858 160.323 193.952 165.336 193.952ZM173.871 193.399H165.336C160.627 193.399 156.795 189.553 156.795 184.826V159.119H172.241C173.14 159.119 173.871 159.853 173.871 160.755V193.399Z" fill="#D3D5DD"/>
<path d="M151.001 167.243L142.678 161.55C140.401 159.992 139.171 157.298 139.482 154.55L139.587 153.615C139.701 152.606 140.609 151.881 141.615 151.995L160.403 154.138L161.168 177.824L154.788 176.893L153.405 170.784C153.078 169.341 152.219 168.076 151.001 167.243Z" fill="#D3D5DD"/>
<path d="M161.168 178.1C161.235 178.1 161.301 178.075 161.352 178.03C161.412 177.975 161.446 177.897 161.444 177.815L160.679 154.129C160.674 153.992 160.57 153.878 160.435 153.863L141.647 151.72C140.478 151.588 139.444 152.434 139.314 153.584L139.209 154.519C138.885 157.377 140.156 160.159 142.524 161.778L150.846 167.471C152.011 168.268 152.825 169.466 153.137 170.845L154.52 176.954C154.546 177.066 154.637 177.15 154.749 177.166L161.129 178.097C161.142 178.099 161.155 178.1 161.168 178.1ZM160.136 154.385L160.882 177.502L155.015 176.647L153.673 170.723C153.33 169.207 152.436 167.89 151.155 167.015L142.833 161.322C140.635 159.818 139.455 157.236 139.756 154.582L139.861 153.647C139.958 152.797 140.725 152.172 141.584 152.27L160.136 154.385Z" fill="#D3D5DD"/>
<path d="M121.548 181.373L113.73 174.999C111.591 173.255 110.591 170.466 111.13 167.754L111.673 165.028L132.013 169.105L130.796 192.772L124.516 191.307L123.648 185.104C123.442 183.638 122.692 182.305 121.548 181.373Z" fill="#D3D5DD"/>
<path d="M130.796 193.048C130.854 193.048 130.913 193.029 130.961 192.993C131.026 192.943 131.066 192.868 131.07 192.786L132.288 169.119C132.295 168.982 132.201 168.86 132.067 168.834L111.727 164.757C111.654 164.742 111.581 164.757 111.52 164.797C111.459 164.838 111.417 164.901 111.403 164.973L110.861 167.7C110.299 170.52 111.332 173.399 113.557 175.213L121.375 181.586C122.469 182.478 123.179 183.741 123.375 185.141L124.244 191.344C124.259 191.458 124.343 191.549 124.454 191.575L130.733 193.04C130.754 193.046 130.775 193.048 130.796 193.048ZM131.725 169.329L130.537 192.427L124.762 191.08L123.921 185.064C123.705 183.525 122.924 182.137 121.722 181.157L113.905 174.784C111.84 173.099 110.881 170.427 111.401 167.808L111.89 165.353L131.725 169.329Z" fill="#D3D5DD"/>
<path d="M140.839 178.351C144.311 176.53 144.183 173.501 140.661 171.606L133.906 167.972L127.052 161.901C124.951 160.04 120.015 159.685 116.945 161.153L114.439 162.352C110.454 164.258 110.072 167.5 113.715 169.623L128.148 178.03C131.596 180.038 137.328 180.193 140.839 178.351Z" fill="white"/>
<path d="M134.896 179.917C137.187 179.917 139.343 179.448 140.966 178.596C142.689 177.693 143.642 176.452 143.649 175.101C143.657 173.686 142.641 172.358 140.79 171.362L134.063 167.743L127.234 161.693C126.014 160.613 123.843 159.968 121.427 159.968C119.721 159.968 118.087 160.3 116.826 160.903L114.32 162.102C112.195 163.118 110.99 164.528 110.928 166.071C110.871 167.487 111.811 168.834 113.576 169.862L128.01 178.269C129.807 179.316 132.317 179.917 134.896 179.917ZM121.427 160.521C123.678 160.521 125.764 161.129 126.869 162.109L133.723 168.18C133.739 168.194 133.757 168.206 133.775 168.216L140.53 171.85C142.169 172.731 143.105 173.915 143.099 175.099C143.093 176.234 142.245 177.302 140.712 178.107C139.166 178.917 137.1 179.364 134.896 179.364C132.411 179.364 130.002 178.79 128.286 177.791L113.853 169.384C112.273 168.464 111.43 167.295 111.478 166.093C111.531 164.785 112.653 163.512 114.557 162.601L117.062 161.403C118.252 160.834 119.802 160.521 121.427 160.521Z" fill="#D3D5DD"/>
<path d="M146.5 198.437L138.678 203.1C136.172 204.594 134.635 207.304 134.635 210.231V215.183L130.075 212.152C127.319 210.32 125.653 207.23 125.634 203.911L125.601 198.255L130.799 198.337C132.292 198.36 133.764 197.977 135.057 197.227L143.428 192.378V195.042C143.428 196.022 143.945 196.928 144.786 197.425L146.5 198.437Z" fill="white"/>
<path d="M134.636 215.46C134.68 215.46 134.725 215.449 134.766 215.426C134.855 215.378 134.911 215.285 134.911 215.183V210.231C134.911 207.416 136.409 204.775 138.819 203.338L146.641 198.675C146.725 198.625 146.776 198.534 146.776 198.437C146.776 198.339 146.724 198.249 146.64 198.199L144.927 197.187C144.173 196.742 143.705 195.92 143.705 195.042V192.378C143.705 192.279 143.652 192.188 143.567 192.139C143.482 192.09 143.376 192.09 143.291 192.139L134.921 196.988C133.708 197.69 132.328 198.061 130.928 198.061L130.804 198.06L125.606 197.979C125.542 197.978 125.46 198.006 125.408 198.059C125.355 198.111 125.326 198.183 125.326 198.257L125.359 203.913C125.379 207.33 127.085 210.496 129.923 212.383L134.484 215.414C134.529 215.444 134.582 215.46 134.636 215.46ZM145.959 198.438L138.538 202.862C135.961 204.399 134.36 207.222 134.36 210.231V214.668L130.227 211.921C127.542 210.137 125.927 207.142 125.909 203.91L125.878 198.537L130.927 198.615C132.423 198.615 133.899 198.218 135.195 197.467L143.153 192.858V195.043C143.153 196.116 143.725 197.12 144.646 197.664L145.959 198.438Z" fill="#D3D5DD"/>
<path d="M176.142 188.054L167.807 190.276C164.748 191.091 162.421 193.59 161.817 196.709L160.982 201.023L157.705 194.442C157.054 193.135 156.697 191.699 156.661 190.238L156.46 182.093L160.979 183.573C162.462 184.059 164.051 184.114 165.563 183.73L174.039 181.584L174.164 181.551L174.213 184.465C174.224 185.112 174.461 185.736 174.883 186.226L176.376 187.96L176.142 188.054Z" fill="white"/>
<path d="M160.983 201.299C160.995 201.299 161.008 201.298 161.02 201.296C161.137 201.28 161.231 201.191 161.253 201.075L162.088 196.762C162.668 193.767 164.941 191.326 167.878 190.543L176.213 188.32L176.478 188.217C176.561 188.183 176.623 188.112 176.644 188.025C176.665 187.938 176.643 187.847 176.585 187.779L175.092 186.045C174.713 185.604 174.499 185.041 174.49 184.46L174.441 181.546C174.439 181.461 174.399 181.381 174.331 181.33C174.264 181.279 174.176 181.262 174.095 181.284L173.97 181.317L165.497 183.462C164.04 183.831 162.492 183.777 161.065 183.31L156.545 181.83C156.461 181.802 156.368 181.818 156.295 181.871C156.224 181.924 156.182 182.01 156.185 182.099L156.386 190.245C156.423 191.736 156.793 193.23 157.459 194.566L160.736 201.146C160.783 201.24 160.879 201.299 160.983 201.299ZM175.903 187.833L167.737 190.009C164.597 190.846 162.168 193.455 161.547 196.657L160.868 200.172L157.952 194.319C157.323 193.056 156.972 191.642 156.937 190.232L156.745 182.478L160.895 183.837C162.42 184.336 164.076 184.394 165.632 184L173.896 181.907L173.939 184.47C173.95 185.181 174.212 185.869 174.676 186.407L175.903 187.833Z" fill="#D3D5DD"/>
<path d="M172.435 163.13C169.338 164.754 163.924 164.677 160.444 162.977L153.765 159.713L142.519 156.323C139.036 155.273 138.472 152.956 141.29 151.608L143.551 150.526C147.077 148.84 152.889 148.843 156.651 150.552L171.5 157.3C175.036 158.905 175.499 161.523 172.435 163.13Z" fill="white"/>
<path d="M166.808 164.578C166.809 164.578 166.809 164.578 166.808 164.578C169.04 164.578 171.083 164.151 172.562 163.375C174.001 162.62 174.776 161.593 174.745 160.484C174.708 159.187 173.567 157.935 171.615 157.047L156.765 150.3C154.905 149.454 152.496 148.989 149.984 148.989C147.496 148.989 145.17 149.446 143.434 150.276L141.173 151.357C139.842 151.993 139.151 152.874 139.224 153.836C139.313 154.995 140.485 155.997 142.441 156.587L153.687 159.977L160.324 163.225C162.109 164.098 164.412 164.578 166.808 164.578ZM149.984 149.542C152.42 149.542 154.747 149.99 156.538 150.803L171.388 157.551C173.141 158.348 174.164 159.422 174.194 160.499C174.219 161.387 173.549 162.234 172.307 162.885C170.905 163.62 168.952 164.025 166.809 164.025C164.528 164.025 162.252 163.552 160.565 162.728L153.886 159.464L142.599 156.058C140.899 155.545 139.842 154.699 139.773 153.794C139.719 153.075 140.3 152.388 141.41 151.857L143.671 150.775C145.334 149.98 147.576 149.542 149.984 149.542Z" fill="#D3D5DD"/>
<path d="M261.538 223.906C261.662 223.792 261.83 223.741 261.994 223.767L282.382 226.905C282.759 226.923 283.136 226.981 283.503 227.078C283.564 227.084 283.624 227.101 283.68 227.127C284.069 227.243 284.436 227.397 284.772 227.584L285.052 227.74C285.06 227.743 285.068 227.747 285.076 227.752L290.603 230.731C290.865 230.874 291.657 231.46 290.914 232.947C290.809 233.235 290.53 233.427 290.17 233.467C290.91 234.021 290.775 235.446 290.362 236.176C290.25 236.435 289.996 236.612 289.678 236.663C289.9 237.357 289.592 238.315 289.178 238.885C289.118 238.98 289.038 239.058 288.944 239.119L289.342 239.419C289.978 239.952 289.985 240.914 289.358 241.76L289.357 241.759C289.199 241.98 288.817 242.322 288.258 242.322C288.002 242.322 287.745 242.25 287.496 242.107L286.524 241.56C286.508 241.682 286.481 241.805 286.436 241.926L286.274 242.352C285.958 243.188 285.026 243.607 284.193 243.29L280.412 241.845C280.269 241.791 280.151 241.702 280.057 241.594C280.031 241.591 280.003 241.594 279.985 241.578C279.897 241.498 277.968 239.333 277.317 238.206L276.323 236.348C276.103 235.934 275.891 235.537 275.743 235.103L262.701 235.423C262.384 235.429 262.161 235.205 262.138 234.912L261.563 227.371L261.36 224.352C261.35 224.183 261.415 224.02 261.538 223.906Z" fill="white"/>
<path d="M284.767 243.671C285.546 243.671 286.255 243.18 286.533 242.449L286.694 242.023C286.7 242.008 286.704 241.995 286.709 241.98L287.363 242.348C287.652 242.514 287.954 242.598 288.258 242.598C288.861 242.598 289.324 242.265 289.563 241.944C289.569 241.938 289.574 241.931 289.579 241.924C290.298 240.955 290.273 239.837 289.519 239.205L289.37 239.092C289.384 239.073 289.398 239.053 289.411 239.033C289.808 238.486 290.115 237.601 290.005 236.859C290.285 236.749 290.501 236.549 290.615 236.286C291.007 235.596 291.16 234.362 290.668 233.604C290.906 233.48 291.084 233.286 291.173 233.041C292.039 231.314 290.96 230.611 290.735 230.488L284.905 227.341C284.553 227.145 284.167 226.983 283.759 226.861C283.71 226.836 283.62 226.811 283.53 226.802C283.187 226.709 282.791 226.647 282.395 226.628L262.036 223.493C261.791 223.455 261.536 223.532 261.352 223.702C261.166 223.873 261.069 224.116 261.086 224.368L261.29 227.388L261.865 234.932C261.899 235.376 262.245 235.698 262.689 235.698L275.553 235.382C275.7 235.761 275.886 236.109 276.081 236.475L277.076 238.335C277.737 239.48 279.683 241.673 279.8 241.781C279.841 241.818 279.884 241.838 279.923 241.85C280.038 241.962 280.17 242.047 280.315 242.102L284.095 243.547C284.312 243.63 284.537 243.671 284.767 243.671ZM286.525 241.283C286.483 241.283 286.441 241.293 286.402 241.312C286.32 241.353 286.264 241.432 286.252 241.523C286.237 241.639 286.213 241.738 286.18 241.826L286.018 242.252C285.764 242.922 284.965 243.287 284.291 243.03L280.511 241.585C280.42 241.551 280.337 241.491 280.266 241.41C280.229 241.368 280.181 241.338 280.127 241.324C279.805 240.977 278.136 239.068 277.557 238.065L276.567 236.215C276.35 235.808 276.146 235.423 276.005 235.011C275.967 234.899 275.862 234.825 275.744 234.825C275.742 234.825 275.74 234.825 275.737 234.825L262.695 235.144C262.534 235.144 262.426 235.044 262.414 234.889L261.636 224.33C261.63 224.246 261.662 224.165 261.724 224.108C261.775 224.061 261.841 224.035 261.91 224.035L282.34 227.176C282.726 227.196 283.085 227.251 283.433 227.343C283.506 227.354 283.536 227.362 283.565 227.375C283.971 227.5 284.321 227.646 284.638 227.822L284.919 227.978L290.473 230.972C290.736 231.116 291.286 231.586 290.668 232.82C290.588 233.034 290.396 233.161 290.14 233.19C290.028 233.202 289.934 233.282 289.905 233.392C289.875 233.501 289.915 233.618 290.006 233.686C290.596 234.127 290.485 235.397 290.123 236.037C290.037 236.232 289.863 236.351 289.635 236.387C289.556 236.4 289.486 236.447 289.444 236.515C289.402 236.584 289.391 236.668 289.416 236.745C289.609 237.35 289.323 238.214 288.956 238.719C288.908 238.793 288.858 238.843 288.796 238.883C288.719 238.932 288.672 239.015 288.669 239.106C288.665 239.196 288.707 239.283 288.779 239.337L289.178 239.637C289.68 240.058 289.673 240.854 289.153 241.571C289.146 241.578 289.14 241.587 289.133 241.595C289.101 241.641 288.799 242.044 288.258 242.044C288.051 242.044 287.841 241.984 287.633 241.865L286.659 241.317C286.618 241.295 286.571 241.283 286.525 241.283Z" fill="#D3D5DD"/>
<path d="M276.288 236.067L276.047 236.077V228.89L276.288 236.067Z" fill="#676FFE"/>
<path d="M276.048 236.353C276.052 236.353 276.055 236.353 276.059 236.353L276.299 236.344C276.451 236.338 276.569 236.211 276.564 236.059L276.323 228.881C276.318 228.73 276.22 228.607 276.043 228.614C275.893 228.617 275.772 228.739 275.772 228.89V236.078C275.772 236.153 275.803 236.225 275.857 236.277C275.908 236.326 275.977 236.353 276.048 236.353Z" fill="#D3D5DD"/>
<path d="M275.942 225.73L276.048 228.89V236.077L258.054 236.8V222.669L275.942 225.73Z" fill="#D3D5DD"/>
<path d="M258.054 237.077C258.058 237.077 258.062 237.077 258.065 237.077L276.059 236.353C276.207 236.347 276.323 236.226 276.323 236.077V228.89L276.217 225.721C276.213 225.59 276.117 225.48 275.988 225.458L258.1 222.396C258.021 222.383 257.938 222.405 257.877 222.458C257.815 222.51 257.779 222.588 257.779 222.669V236.8C257.779 236.875 257.81 236.947 257.863 237C257.915 237.049 257.983 237.077 258.054 237.077ZM275.772 235.812L258.33 236.513V222.997L275.674 225.965L275.772 228.899V235.812Z" fill="#D3D5DD"/>
<path d="M217.827 291.186L208.676 285.744L212.738 279.15L224.032 285.746L224.13 285.614L224.499 285.913L224.467 285.976C224.728 286.084 225.005 286.145 225.291 286.145C225.351 286.145 225.412 286.143 225.461 286.138L226.821 285.996C227.816 285.895 228.808 286.033 229.733 286.396L231.053 286.911L237.069 287.81C237.345 287.824 237.598 287.944 237.783 288.149C237.968 288.354 238.063 288.62 238.048 288.897C238.046 288.946 238.04 288.995 238.029 289.048C237.903 289.633 237.424 290.118 236.664 290.418C236.091 290.624 235.457 290.667 234.878 290.551L232.901 290.179C232.672 290.138 232.433 290.187 232.241 290.313L232.162 290.381C232.023 290.493 231.936 290.652 231.917 290.83C231.897 291.008 231.948 291.182 232.06 291.321C232.082 291.349 232.105 291.374 232.131 291.398L239.359 297.944C240 298.64 240.127 299.619 239.645 300.356C239.354 300.741 238.736 300.806 238.39 300.541L233.21 296.759L237.495 302.49L237.527 302.538C238.011 303.35 237.94 304.333 237.318 304.963C236.953 305.274 236.351 305.222 236.047 304.861L231.968 300.397L234.472 305.092L234.496 305.142C234.856 306.019 234.639 306.981 233.937 307.502C233.527 307.767 232.941 307.639 232.678 307.229L228.994 301.687L229.928 305.35C230.179 306.262 229.844 307.19 229.071 307.628C228.95 307.684 228.823 307.712 228.69 307.712C228.337 307.712 228.013 307.505 227.887 307.225L225.728 300.861C225.534 300.297 225.19 299.796 224.733 299.412L222.755 297.725L222.701 297.673C221.773 296.633 220.809 295.787 220.112 294.582L220.086 294.518L220.062 294.565L218.17 293.638L219.113 292.369C218.773 291.89 218.339 291.484 217.827 291.186Z" fill="white"/>
<path d="M228.691 307.989C228.863 307.989 229.03 307.952 229.187 307.879C230.087 307.37 230.483 306.328 230.193 305.276L229.661 303.189L232.449 307.382C232.776 307.893 233.568 308.069 234.086 307.734C234.893 307.137 235.159 306.032 234.75 305.037L234.721 304.974L233.242 302.2L235.844 305.048C236.217 305.494 237.034 305.568 237.496 305.173C238.221 304.441 238.321 303.331 237.762 302.396L237.724 302.336L234.53 298.064L238.228 300.763C238.406 300.899 238.648 300.977 238.904 300.977C239.29 300.977 239.649 300.807 239.864 300.523C240.427 299.664 240.301 298.558 239.562 297.756L232.315 291.192C232.299 291.178 232.286 291.163 232.274 291.148C232.208 291.066 232.179 290.964 232.19 290.86C232.202 290.756 232.253 290.662 232.334 290.597L232.42 290.523C232.515 290.464 232.692 290.422 232.852 290.451L234.827 290.823C235.445 290.947 236.15 290.896 236.756 290.678C237.608 290.342 238.153 289.785 238.299 289.105C238.313 289.036 238.32 288.974 238.324 288.911C238.341 288.56 238.222 288.223 237.988 287.963C237.754 287.703 237.432 287.551 237.084 287.533L231.124 286.642L229.832 286.138C228.866 285.758 227.834 285.615 226.793 285.72L225.432 285.863C225.396 285.865 225.344 285.868 225.291 285.868C225.108 285.868 224.924 285.839 224.742 285.781C224.725 285.75 224.702 285.721 224.673 285.697L224.303 285.398C224.245 285.351 224.171 285.329 224.095 285.338C224.049 285.344 224.006 285.362 223.969 285.388L212.876 278.909C212.748 278.835 212.582 278.875 212.503 279.003L208.442 285.597C208.403 285.66 208.39 285.736 208.408 285.808C208.426 285.88 208.471 285.942 208.535 285.98L217.686 291.423C218.102 291.664 218.465 291.981 218.769 292.367L217.949 293.471C217.9 293.536 217.883 293.621 217.902 293.701C217.921 293.781 217.975 293.848 218.049 293.884L219.928 294.805C220.458 295.691 221.091 296.358 221.76 297.063C222.004 297.32 222.251 297.58 222.496 297.855L222.562 297.921L224.555 299.62C224.975 299.973 225.29 300.432 225.467 300.949L227.625 307.312C227.813 307.728 228.236 307.989 228.691 307.989ZM228.994 301.41C228.956 301.41 228.918 301.418 228.881 301.434C228.759 301.489 228.694 301.624 228.727 301.755L229.661 305.418C229.883 306.226 229.591 307.015 228.936 307.387C228.872 307.416 228.783 307.436 228.691 307.436C228.456 307.436 228.223 307.299 228.138 307.11L225.99 300.771C225.779 300.159 225.406 299.616 224.911 299.199L222.894 297.474C222.659 297.21 222.408 296.946 222.16 296.684C221.485 295.972 220.847 295.3 220.352 294.443L220.342 294.412C220.3 294.313 220.206 294.246 220.099 294.242C220.078 294.242 220.059 294.243 220.039 294.246L218.591 293.536L219.335 292.534C219.407 292.438 219.408 292.306 219.339 292.208C218.966 291.684 218.504 291.26 217.966 290.948L209.059 285.651L212.832 279.525L223.894 285.986C223.978 286.035 224.078 286.036 224.159 285.993L224.196 286.023C224.199 286.04 224.204 286.057 224.209 286.072C224.236 286.145 224.291 286.203 224.363 286.232C224.667 286.358 224.979 286.422 225.292 286.422C225.36 286.422 225.428 286.419 225.484 286.414L226.85 286.272C227.799 286.175 228.746 286.306 229.632 286.654L230.954 287.169C230.972 287.176 230.992 287.182 231.013 287.185L237.029 288.084C237.257 288.096 237.443 288.185 237.58 288.335C237.714 288.486 237.784 288.68 237.774 288.883C237.772 288.917 237.768 288.952 237.76 288.99C237.656 289.482 237.23 289.898 236.563 290.161C236.062 290.341 235.463 290.386 234.932 290.28L232.952 289.908C232.644 289.852 232.342 289.918 232.091 290.081L231.983 290.171C231.793 290.323 231.67 290.548 231.643 290.799C231.615 291.051 231.687 291.298 231.845 291.494C231.877 291.534 231.91 291.571 231.948 291.604L239.176 298.149C239.722 298.744 239.826 299.576 239.416 300.204C239.253 300.417 238.782 300.491 238.558 300.32L233.373 296.535C233.263 296.454 233.111 296.467 233.015 296.564C232.919 296.661 232.909 296.815 232.991 296.924L237.298 302.69C237.718 303.394 237.651 304.234 237.123 304.768C236.926 304.933 236.455 304.917 236.259 304.682L232.172 300.21C232.078 300.107 231.923 300.091 231.81 300.171C231.697 300.252 231.661 300.405 231.727 300.527L234.248 305.26C234.559 306.019 234.372 306.836 233.775 307.278C233.542 307.426 233.084 307.349 232.911 307.078L229.225 301.533C229.171 301.455 229.084 301.41 228.994 301.41Z" fill="#D3D5DD"/>
<path d="M165.2 214.638L189.66 204.667C190.393 204.368 191.219 204.4 191.927 204.755L216.247 216.945L216.223 216.964L234.414 226.094L201.783 257.26L209.764 273.972L210.119 274.26L209.987 274.438L211.085 276.739L206.718 278.84L201.717 285.573L198.456 283.974C197.457 283.389 196.798 282.489 196.49 281.491C196.431 281.401 196.369 281.314 196.322 281.215L184.2 255.828L176.489 244.545L157.804 231.651C157.057 231.135 156.611 230.283 156.611 229.373V227.444C156.61 221.819 160.007 216.755 165.2 214.638Z" fill="white"/>
<path d="M201.718 285.849C201.802 285.849 201.885 285.81 201.938 285.738L206.898 279.06L211.204 276.988C211.341 276.922 211.399 276.757 211.334 276.619L210.307 274.469L210.34 274.425C210.429 274.306 210.408 274.138 210.293 274.045L209.986 273.796L202.119 257.321L234.604 226.294C234.669 226.232 234.7 226.142 234.686 226.053C234.674 225.964 234.617 225.887 234.537 225.847L216.454 216.772C216.433 216.741 216.404 216.716 216.371 216.699L192.05 204.508C191.28 204.122 190.353 204.087 189.556 204.411L165.096 214.382C159.774 216.552 156.335 221.679 156.335 227.445V229.373C156.335 230.375 156.827 231.312 157.649 231.879L176.291 244.744L183.973 255.984L196.074 281.334C196.119 281.428 196.175 281.514 196.231 281.599C196.572 282.688 197.315 283.625 198.318 284.213L201.597 285.822C201.635 285.84 201.677 285.849 201.718 285.849ZM210.718 276.608L206.599 278.591C206.559 278.61 206.523 278.639 206.496 278.675L201.633 285.224L198.577 283.726C197.711 283.218 197.056 282.391 196.752 281.409C196.745 281.385 196.734 281.361 196.719 281.34C196.719 281.339 196.688 281.293 196.688 281.292C196.646 281.229 196.603 281.166 196.569 281.096L184.447 255.709L176.714 244.39C176.696 244.362 176.672 244.338 176.643 244.319L157.959 231.424C157.286 230.96 156.884 230.193 156.884 229.374V227.445C156.884 221.905 160.188 216.979 165.302 214.894L189.762 204.924C190.413 204.658 191.172 204.687 191.802 205.003L216.016 217.139C216.037 217.17 216.065 217.195 216.099 217.212L233.939 226.165L201.592 257.06C201.506 257.142 201.482 257.272 201.534 257.379L209.514 274.092C209.532 274.129 209.558 274.162 209.59 274.188L209.741 274.311C209.702 274.387 209.699 274.479 209.737 274.558L210.718 276.608Z" fill="#D3D5DD"/>
<path d="M224.129 285.614L218.171 293.638L201.717 285.573L210.119 274.26L224.129 285.614Z" fill="#D3D5DD"/>
<path d="M218.171 293.915C218.255 293.915 218.338 293.875 218.391 293.803L224.35 285.78C224.439 285.661 224.418 285.493 224.303 285.4L210.292 274.045C210.233 273.998 210.158 273.977 210.084 273.986C210.01 273.995 209.943 274.035 209.898 274.095L201.496 285.408C201.447 285.474 201.43 285.558 201.449 285.639C201.468 285.719 201.522 285.786 201.596 285.822L218.049 293.887C218.088 293.905 218.13 293.915 218.171 293.915ZM223.751 285.662L218.087 293.289L202.137 285.471L210.169 274.655L223.751 285.662Z" fill="#D3D5DD"/>
<path d="M221.905 222.301L251.776 221.672C251.935 221.669 252.085 221.698 252.229 221.742C252.357 221.719 252.49 221.717 252.625 221.74L258.054 222.669V236.8L252.894 237.008L252.846 236.951L222.225 237.596L221.905 222.301Z" fill="white"/>
<path d="M222.225 237.872C222.227 237.872 222.229 237.872 222.231 237.872L252.73 237.23C252.781 237.267 252.852 237.285 252.904 237.283L258.064 237.076C258.212 237.07 258.329 236.948 258.329 236.8V222.668C258.329 222.534 258.232 222.419 258.099 222.396L252.67 221.466C252.528 221.442 252.385 221.441 252.246 221.459C252.091 221.416 251.944 221.395 251.8 221.395L221.898 222.024C221.825 222.025 221.756 222.056 221.705 222.109C221.654 222.162 221.627 222.233 221.629 222.306L221.949 237.601C221.953 237.752 222.076 237.872 222.225 237.872ZM252.845 236.675C252.843 236.675 252.841 236.675 252.839 236.675L222.494 237.314L222.186 222.572L251.782 221.949C251.898 221.955 252.021 221.967 252.147 222.006C252.189 222.019 252.233 222.022 252.277 222.014C252.373 221.996 252.474 221.994 252.577 222.012L257.777 222.902V236.534L253.004 236.726C252.959 236.693 252.904 236.675 252.845 236.675Z" fill="#D3D5DD"/>
<path d="M198.503 239.916C198.503 247.452 202.689 254.009 208.853 257.366C211.089 258.593 213.584 259.389 216.234 259.66C216.906 259.738 217.589 259.771 218.283 259.771C228.561 259.771 237.011 251.897 237.969 241.834C238.03 241.204 238.063 240.563 238.063 239.916C238.063 239.296 238.035 238.688 237.98 238.086C237.06 227.978 228.589 220.061 218.283 220.061C207.36 220.061 198.503 228.952 198.503 239.916Z" fill="white"/>
<path d="M218.283 260.047C228.675 260.047 237.256 252.229 238.243 241.861C238.306 241.205 238.338 240.55 238.338 239.916C238.338 239.297 238.31 238.672 238.255 238.061C237.306 227.642 228.72 219.784 218.283 219.784C207.225 219.784 198.228 228.815 198.228 239.916C198.228 247.305 202.249 254.084 208.722 257.608C211.041 258.881 213.559 259.665 216.206 259.935C216.86 260.011 217.54 260.047 218.283 260.047ZM218.283 220.337C228.434 220.337 236.784 227.979 237.706 238.111C237.761 238.707 237.788 239.314 237.788 239.916C237.788 240.533 237.756 241.169 237.694 241.808C236.735 251.891 228.389 259.495 218.283 259.495C217.561 259.495 216.901 259.46 216.265 259.386C213.688 259.122 211.24 258.361 208.985 257.123C202.689 253.695 198.778 247.102 198.778 239.916C198.778 229.12 207.528 220.337 218.283 220.337Z" fill="#D3D5DD"/>
<path d="M208.853 257.366C211.089 258.593 213.584 259.389 216.234 259.66C216.906 259.738 217.589 259.771 218.283 259.771C228.561 259.771 237.011 251.897 237.969 241.834C236.735 241.696 235.469 241.624 234.185 241.624C221.731 241.624 211.326 248.375 208.853 257.366Z" fill="#D3D5DD"/>
<path d="M218.283 260.047C228.675 260.047 237.256 252.229 238.243 241.861C238.257 241.711 238.149 241.577 237.999 241.56C236.745 241.42 235.462 241.348 234.185 241.348C221.895 241.348 211.129 248.054 208.587 257.293C208.553 257.416 208.608 257.547 208.72 257.609C211.04 258.882 213.558 259.665 216.205 259.936C216.86 260.011 217.54 260.047 218.283 260.047ZM237.667 242.08C236.583 252.027 228.298 259.494 218.283 259.494C217.561 259.494 216.901 259.459 216.265 259.385C213.762 259.129 211.38 258.404 209.178 257.227C211.761 248.333 222.232 241.901 234.185 241.901C235.349 241.901 236.519 241.961 237.667 242.08Z" fill="#D3D5DD"/>
<path d="M286.651 241.628L281.694 239.06" stroke="#D3D5DD" stroke-width="5.20626" stroke-miterlimit="10" stroke-linecap="round" stroke-linejoin="round"/>
</g>
<g clip-path="url(#clip3_85_253)">
<path d="M105.877 70.2743C111.401 73.741 116.167 78.8698 122.704 86.1699L123.172 86.6925L122.129 87.6216L121.662 87.0993C110.645 74.7976 104.766 68.7863 91.6205 66.5644C81.9136 64.9237 72.7467 67.7043 67.0991 74.0025C62.1008 79.5764 60.597 87.0131 62.8648 94.9426C64.2985 99.9549 65.9902 104.416 67.4832 108.351C70.2413 115.623 72.2342 120.876 70.2618 123.862C69.249 125.395 67.2661 126.202 64.1996 126.328C62.517 126.397 60.9124 126.44 59.3608 126.483C49.6878 126.745 42.6993 126.935 37.2878 132.808L36.8145 133.321L35.7809 132.372L36.254 131.858C42.0643 125.552 49.3007 125.356 59.3161 125.084C60.8632 125.042 62.4628 124.999 64.1352 124.93C66.7211 124.824 68.3422 124.222 69.0905 123.089C70.6702 120.697 68.6855 115.465 66.1726 108.841C64.6697 104.879 62.9669 100.39 61.5173 95.3207C59.1129 86.9136 60.7236 79.0103 66.0531 73.0678C72.022 66.4113 81.665 63.4646 91.8484 65.186C97.5418 66.1483 101.905 67.7816 105.877 70.2743Z" fill="#D3D5DD"/>
</g>
<g clip-path="url(#clip4_85_253)">
<path d="M113.277 61.376C113.223 61.5555 113.177 61.7316 113.139 61.9029L113.277 61.376Z" fill="#EEEEEE"/>
<path d="M122.123 57.4167C122.112 57.4193 122.11 57.4198 122.123 57.4167V57.4167Z" fill="#EEEEEE"/>
<path d="M151.723 58.1197C150.546 56.578 149.217 55.4791 149.217 55.4791C149.217 55.4791 148.709 54.2308 147.374 53.2692C143.384 50.3936 135.58 53.8728 133.806 54.4242C131.546 55.1268 121.384 57.8306 116.228 58.4973C115.143 63.0649 121.047 64.2744 116.104 63.6895C113.666 63.1783 112.772 63.9073 113.182 61.9669L113.178 61.9746L113.197 61.9042C113.234 61.7333 114.875 61.8607 114.927 61.6831C114.927 61.6831 123.054 60.5286 117.009 58.3633C114.202 57.3582 108.553 57.1638 108.553 57.1638L107.352 57.5889C107.352 57.5889 102.534 54.2404 96.891 50.731C94.3029 49.1219 92.3452 50.1428 92.3452 50.1428L88.9756 51.392L99.2181 69.1962L98.1636 71.6755L105.408 81.3706L109.368 82.4562L113.963 81.251C113.963 81.251 131.438 77.2697 141.225 71.5999C141.225 71.5999 144.125 70.1496 145.628 68.908C148.728 66.3493 149.302 64.8373 150.699 63.2516C152.916 60.733 152.347 58.9348 151.723 58.1197Z" fill="white"/>
<path d="M109.369 82.6955C109.348 82.6955 109.326 82.6926 109.306 82.6869L105.345 81.6013C105.294 81.5875 105.249 81.5563 105.217 81.5137L97.9728 71.8186C97.9222 71.7501 97.9107 71.6597 97.9441 71.5812L98.9519 69.212L88.7695 51.5122C88.7342 51.4509 88.7275 51.3777 88.7514 51.3111C88.7757 51.2446 88.8273 51.1924 88.8931 51.168L92.2627 49.9183C92.2627 49.9164 92.9112 49.5842 93.9504 49.5842C94.9782 49.5842 96.0103 49.9016 97.0175 50.5276C102.156 53.7239 106.665 56.8235 107.388 57.3227L108.473 56.9384C108.502 56.9284 108.53 56.9236 108.561 56.925C108.793 56.9331 114.265 57.1318 117.078 58.134C122.292 57.3266 131.486 54.8946 133.736 54.1954C133.962 54.1255 134.285 54.0073 134.687 53.8608C136.566 53.1773 140.062 51.9046 143.246 51.9046C145.001 51.9046 146.437 52.2985 147.515 53.0749C148.742 53.9594 149.294 55.0674 149.414 55.3321C149.659 55.5403 150.838 56.5679 151.913 57.9746C152.322 58.5093 153.456 60.4822 150.878 63.4105C150.46 63.8848 150.115 64.3543 149.751 64.8516C148.911 65.9965 147.96 67.2941 145.78 69.0937C144.273 70.3382 141.451 71.7554 141.332 71.8148C131.639 77.4305 114.192 81.4453 114.016 81.485L109.43 82.6883C109.409 82.6931 109.389 82.6955 109.369 82.6955ZM105.55 81.1615L109.37 82.2087L113.903 81.0198C114.085 80.9782 131.463 76.9797 141.106 71.3931C141.148 71.3715 144.012 69.9337 145.477 68.7238C147.611 66.9619 148.544 65.6902 149.366 64.5678C149.737 64.0619 150.088 63.5837 150.52 63.0936C152.794 60.5119 151.987 58.8572 151.535 58.2661C150.388 56.7656 149.079 55.6753 149.065 55.6643C149.035 55.6394 149.011 55.6069 148.996 55.5705C148.991 55.5585 148.493 54.3705 147.235 53.464C146.241 52.7475 144.898 52.3837 143.245 52.3837C140.145 52.3837 136.701 53.6378 134.85 54.3112C134.439 54.461 134.107 54.5811 133.877 54.6529C131.925 55.2594 123.484 57.531 117.944 58.4782C119.019 58.9573 119.512 59.4297 119.482 59.9413C119.445 60.5798 118.574 61.1068 116.822 61.5486C117.147 62.1579 117.564 62.6174 117.879 62.9644C118.221 63.3406 118.427 63.5675 118.316 63.8187C118.22 64.0365 117.95 64.0667 117.674 64.0667C117.37 64.0667 116.907 64.0265 116.076 63.9279C115.368 63.7804 114.808 63.7369 114.357 63.7024C113.694 63.6512 113.256 63.6172 113.012 63.2908C112.818 63.0304 112.797 62.6552 112.94 61.9607C112.941 61.9458 112.944 61.9305 112.948 61.9157L112.966 61.8453C113.023 61.5869 113.32 61.5787 114.037 61.5586C114.281 61.5519 114.64 61.5419 114.763 61.5113C114.798 61.4773 114.844 61.4543 114.894 61.4471C114.9 61.4462 115.451 61.3672 116.147 61.2155C115.817 60.3443 115.765 59.4134 115.996 58.4423C116.006 58.3982 116.029 58.3595 116.059 58.3288C113.279 57.6099 109.069 57.4247 108.589 57.4055L107.433 57.8153C107.359 57.8406 107.28 57.8301 107.217 57.7861C107.169 57.7526 102.339 54.4007 96.7661 50.9349C95.8361 50.3563 94.8885 50.0629 93.9509 50.0629C93.0362 50.0629 92.4612 50.3524 92.4555 50.3553L89.324 51.5184L99.4247 69.0765C99.4624 69.1416 99.4672 69.221 99.4376 69.29L98.437 71.642L105.55 81.1615ZM113.405 62.0712C113.302 62.5776 113.299 62.8739 113.395 63.0031C113.509 63.1558 113.881 63.1845 114.395 63.2243C114.859 63.2602 115.436 63.3047 116.154 63.455C117.059 63.5612 117.563 63.5966 117.789 63.5842C117.719 63.4966 117.616 63.3837 117.527 63.2855C117.195 62.9203 116.706 62.3819 116.344 61.6615C115.737 61.797 115.231 61.8793 115.041 61.9085C114.882 62.0133 114.57 62.022 114.051 62.0363C113.844 62.0421 113.551 62.0502 113.405 62.0712ZM116.425 58.7127C116.254 59.5522 116.318 60.3558 116.616 61.1058C118.347 60.6784 118.988 60.2127 119.006 59.9126C119.015 59.7456 118.84 59.2885 117.029 58.6256C116.822 58.6572 116.62 58.6864 116.425 58.7127Z" fill="#D3D5DD"/>
<path d="M130.64 84.2892C130.158 80.2625 130.876 79.5929 132.687 77.8473C134.231 76.3593 137.92 73.9494 141.222 71.5461C131.748 76.1515 126.055 76.5048 113.962 81.2509L107.546 82.446L127.321 98.0451L130.113 96.0262C130.113 96.0262 131.346 95.2374 131.786 93.9136C132.534 91.6625 131.123 88.3155 130.64 84.2892Z" fill="white"/>
<path d="M127.321 98.284C127.269 98.284 127.217 98.2668 127.174 98.2328L107.399 82.6342C107.326 82.5763 107.293 82.4801 107.315 82.3887C107.337 82.2973 107.411 82.2279 107.504 82.2106L113.919 81.0155C119.221 78.9296 123.375 77.6718 127.04 76.5613C131.763 75.1307 135.842 73.8949 141.118 71.3304C141.228 71.2763 141.363 71.3165 141.426 71.4228C141.49 71.529 141.462 71.6664 141.362 71.7396C140.331 72.4896 139.263 73.2401 138.234 73.9633C136.005 75.5289 133.901 77.0079 132.852 78.0193C131.068 79.7375 130.411 80.3713 130.876 84.2601C131.048 85.6922 131.333 87.0118 131.608 88.2873C132.093 90.5383 132.512 92.4825 132.012 93.9888C131.55 95.3773 130.294 96.1934 130.24 96.2274L127.46 98.2386C127.419 98.2692 127.371 98.284 127.321 98.284ZM108.108 82.5844L127.327 97.7456L129.973 95.832C129.995 95.8172 131.152 95.0619 131.559 93.8376C132.019 92.4557 131.612 90.5714 131.141 88.3888C130.877 87.1621 130.577 85.7721 130.403 84.3176C129.908 80.1918 130.666 79.4623 132.496 77.7C133.598 76.6379 135.717 75.1484 137.96 73.5718C138.3 73.333 138.644 73.0917 138.989 72.8481C134.76 74.7234 131.202 75.8013 127.177 77.0199C123.521 78.1274 119.377 79.3829 114.049 81.474L108.108 82.5844Z" fill="#D3D5DD"/>
<path d="M149.217 55.4792C149.217 55.4792 149.655 56.7826 149.473 57.948C149.39 58.4779 149.938 58.6598 150.18 58.4755C150.507 58.2261 150.45 56.3662 149.217 55.4792Z" fill="#D3D5DD"/>
<path d="M144.839 54.9744C145.069 54.6523 144.906 54.1392 144.475 53.8283C144.043 53.5174 143.507 53.5265 143.276 53.8485C143.045 54.1706 143.208 54.6837 143.64 54.9946C144.071 55.3055 144.608 55.2964 144.839 54.9744Z" fill="#D3D5DD"/>
<path d="M146.504 57.0586C146.735 56.7366 146.572 56.2235 146.14 55.9126C145.709 55.6017 145.172 55.6107 144.941 55.9328C144.711 56.2548 144.874 56.7679 145.305 57.0788C145.737 57.3897 146.273 57.3807 146.504 57.0586Z" fill="#D3D5DD"/>
<path d="M90.7539 50.732L101.285 67.902L103.769 66.1559L92.3457 50.1423L90.7539 50.732Z" fill="#D3D5DD"/>
<path d="M114.998 65.1021C114.998 65.1021 120.299 65.1987 123.648 66.3853C126.154 67.2726 126.835 70.915 123.517 72.9889C120.217 75.0519 113.961 76.0421 113.961 76.0421L114.998 65.1021Z" fill="white"/>
<path d="M113.962 76.2815C113.902 76.2815 113.843 76.2585 113.798 76.2164C113.745 76.1657 113.717 76.0929 113.724 76.0192L114.76 65.0791C114.772 64.9547 114.864 64.8647 115.002 64.8623C115.22 64.8661 120.38 64.9733 123.727 66.1589C124.978 66.6017 125.844 67.703 125.989 69.0326C126.161 70.6111 125.284 72.1657 123.643 73.191C120.34 75.2558 114.256 76.237 113.999 76.2777C113.987 76.2805 113.974 76.2815 113.962 76.2815ZM115.214 65.3476L114.229 75.7536C115.518 75.5248 120.582 74.5417 123.391 72.7856C124.872 71.8599 125.667 70.4767 125.515 69.0853C125.39 67.9399 124.644 66.9917 123.569 66.6107C120.677 65.587 116.248 65.3826 115.214 65.3476Z" fill="#D3D5DD"/>
<path d="M109.03 57.3008C109.03 57.3008 114.331 57.3975 117.68 58.584C120.186 59.4714 120.867 63.1138 117.549 65.1877C114.249 67.2506 107.993 68.2409 107.993 68.2409L109.03 57.3008Z" fill="white"/>
<path d="M107.993 68.4802C107.933 68.4802 107.874 68.4573 107.829 68.4151C107.776 68.3644 107.748 68.2916 107.756 68.2179L108.792 57.2779C108.803 57.1534 108.892 57.0649 109.034 57.061C109.252 57.0649 114.412 57.1721 117.759 58.3576C119.009 58.8004 119.876 59.9012 120.021 61.2309C120.192 62.8094 119.315 64.3645 117.675 65.3897C114.372 67.454 108.288 68.4357 108.03 68.4764C108.018 68.4793 108.006 68.4802 107.993 68.4802ZM109.246 57.5464L108.26 67.9523C109.549 67.7235 114.614 66.7404 117.423 64.9843C118.904 64.0581 119.699 62.6749 119.546 61.2835C119.421 60.1382 118.676 59.19 117.601 58.8095C114.709 57.7852 110.28 57.5808 109.246 57.5464Z" fill="#D3D5DD"/>
<path d="M117.927 72.7113C119.546 70.4507 118.962 67.2692 116.943 65.8147C116.385 65.4121 115.537 65.0221 114.807 64.9383C113.184 63.6039 113.59 63.422 112.675 62.7299C112.92 61.1384 112.575 59.1301 111.062 58.0403C108.978 56.5388 106.333 56.925 104.493 59.4948C103.199 61.3012 103.029 63.7441 103.029 63.7441L99.2707 68.9918L96.5586 70.5737L104.573 82.5371L109.368 82.4567L113.962 76.0425C113.962 76.0421 115.804 75.675 117.927 72.7113Z" fill="#D3D5DD"/>
<path d="M113.883 66.0007C113.687 65.0233 112.681 64.4255 111.844 64.212C110.663 63.9109 109.942 64.0134 109.942 64.0134L108.699 70.5323C108.699 70.5323 110.952 70.2456 112.76 68.7265C113.688 67.9463 114.044 66.7995 113.883 66.0007Z" fill="white"/>
<path d="M108.699 70.772C108.634 70.772 108.571 70.7452 108.526 70.6964C108.474 70.6404 108.451 70.5629 108.465 70.4877L109.708 63.9688C109.727 63.8687 109.808 63.7917 109.909 63.7768C109.909 63.7768 110.671 63.6658 111.903 63.9803C112.788 64.2057 113.898 64.8576 114.118 65.9537C114.279 66.7554 113.97 68.0223 112.914 68.9102C111.074 70.4566 108.825 70.7582 108.729 70.7701C108.719 70.7711 108.709 70.772 108.699 70.772ZM110.142 64.2382L108.999 70.2355C109.678 70.0938 111.277 69.6607 112.607 68.543C113.514 67.7801 113.784 66.7147 113.651 66.0475C113.475 65.1697 112.536 64.635 111.787 64.4436C110.998 64.243 110.416 64.2282 110.142 64.2382Z" fill="#D3D5DD"/>
<path d="M106.795 67.08C106.598 66.1026 105.593 65.5048 104.755 65.2914C103.574 64.9903 102.853 65.0927 102.853 65.0927L101.61 71.6117C101.61 71.6117 103.863 71.325 105.671 69.8058C106.599 69.0252 106.954 67.8784 106.795 67.08Z" fill="white"/>
<path d="M101.61 71.8509C101.544 71.8509 101.481 71.8241 101.436 71.7753C101.384 71.7193 101.361 71.6417 101.375 71.5666L102.618 65.0476C102.637 64.9476 102.719 64.8705 102.819 64.8557C102.82 64.8557 103.581 64.7447 104.814 65.0591C105.698 65.2845 106.809 65.9364 107.028 67.0325C107.189 67.8337 106.88 69.1007 105.824 69.989C103.983 71.5355 101.735 71.8365 101.64 71.849C101.63 71.8504 101.62 71.8509 101.61 71.8509ZM103.053 65.3176L101.91 71.3148C102.588 71.1732 104.187 70.74 105.517 69.6224C106.425 68.8594 106.695 67.794 106.561 67.1268C106.385 66.249 105.447 65.7139 104.697 65.5229C103.909 65.3224 103.33 65.307 103.053 65.3176Z" fill="#D3D5DD"/>
<path d="M104.17 69.8687C105.323 68.2585 105.325 66.281 104.174 65.452C103.023 64.6229 101.156 65.2562 100.003 66.8664C98.8498 68.4766 98.8478 70.4541 99.9985 71.2831C101.149 72.1122 103.017 71.479 104.17 69.8687Z" fill="white"/>
<path d="M101.181 71.8876C100.688 71.8876 100.231 71.746 99.8589 71.4779C99.2382 71.0309 98.897 70.2813 98.898 69.3681C98.8989 68.4846 99.2224 67.5464 99.8088 66.7275C100.639 65.5687 101.858 64.8489 102.991 64.8489C103.484 64.8489 103.941 64.9906 104.313 65.2581C105.568 66.1632 105.591 68.2945 104.363 70.009C103.533 71.1682 102.314 71.8876 101.181 71.8876ZM102.991 65.328C102.009 65.328 100.938 65.9713 100.197 67.007C99.6681 67.7456 99.3761 68.5841 99.3751 69.3691C99.3741 70.1239 99.6447 70.7351 100.138 71.0898C100.432 71.3018 100.783 71.4095 101.182 71.4095C102.164 71.4095 103.234 70.7662 103.976 69.7304C105.05 68.2299 105.077 66.3987 104.035 65.6477C103.741 65.4352 103.389 65.328 102.991 65.328Z" fill="#D3D5DD"/>
<path d="M111.259 68.7889C112.412 67.1787 112.414 65.2012 111.263 64.3721C110.113 63.5431 108.245 64.1763 107.092 65.7866C105.939 67.3968 105.937 69.3742 107.088 70.2033C108.238 71.0324 110.106 70.3991 111.259 68.7889Z" fill="white"/>
<path d="M108.27 70.8088C107.777 70.8088 107.32 70.6671 106.948 70.3995C105.692 69.4945 105.67 67.3636 106.898 65.6486C107.728 64.4899 108.947 63.77 110.081 63.77C110.573 63.77 111.031 63.9117 111.403 64.1792C112.023 64.6263 112.365 65.3758 112.364 66.2891C112.363 67.1731 112.039 68.1107 111.453 68.9297C110.623 70.0889 109.403 70.8088 108.27 70.8088ZM110.081 64.2487C109.098 64.2487 108.027 64.8919 107.286 65.9277C106.211 67.4282 106.185 69.2594 107.227 70.0104C107.521 70.2225 107.872 70.3297 108.27 70.3297C109.253 70.3297 110.323 69.6864 111.065 68.6506C111.594 67.9121 111.886 67.0735 111.887 66.2886C111.887 65.5338 111.617 64.9226 111.124 64.5679C110.83 64.3563 110.478 64.2487 110.081 64.2487Z" fill="#D3D5DD"/>
<path d="M111.894 74.2907C111.698 73.3133 110.692 72.7155 109.855 72.502C108.674 72.201 107.953 72.3034 107.953 72.3034L106.709 78.8224C106.709 78.8224 108.963 78.5357 110.77 77.0165C111.699 76.2363 112.054 75.0895 111.894 74.2907Z" fill="white"/>
<path d="M106.71 79.0623C106.645 79.0623 106.581 79.0355 106.536 78.9867C106.484 78.9307 106.462 78.8532 106.476 78.778L107.719 72.2591C107.738 72.159 107.819 72.082 107.92 72.0671C107.92 72.0671 108.682 71.9561 109.914 72.2705C110.799 72.496 111.909 73.1479 112.129 74.2439C112.289 75.0456 111.981 76.3126 110.924 77.2004C109.084 78.7469 106.836 79.048 106.74 79.0604C106.73 79.0618 106.72 79.0623 106.71 79.0623ZM108.153 72.529L107.01 78.5263C107.688 78.3846 109.288 77.9514 110.618 76.8338C111.525 76.0709 111.795 75.0054 111.662 74.3382C111.485 73.4604 110.547 72.9258 109.797 72.7343C109.009 72.5333 108.427 72.5189 108.153 72.529Z" fill="#D3D5DD"/>
<path d="M109.27 77.0794C110.423 75.4692 110.425 73.4917 109.275 72.6627C108.124 71.8336 106.256 72.4669 105.103 74.0771C103.95 75.6873 103.948 77.6648 105.099 78.4938C106.25 79.3229 108.117 78.6896 109.27 77.0794Z" fill="white"/>
<path d="M106.281 79.0993C105.788 79.0993 105.331 78.9576 104.959 78.6901C103.704 77.785 103.681 75.6536 104.91 73.9392C105.739 72.7804 106.959 72.0605 108.092 72.0605C108.585 72.0605 109.042 72.2022 109.414 72.4703C110.035 72.9173 110.376 73.6668 110.375 74.5801C110.374 75.4636 110.05 76.4017 109.464 77.2207C108.634 78.3794 107.414 79.0993 106.281 79.0993ZM108.091 72.5392C107.109 72.5392 106.039 73.1825 105.297 74.2182C104.223 75.7187 104.196 77.55 105.238 78.301C105.532 78.513 105.884 78.6202 106.282 78.6202C107.264 78.6202 108.335 77.9769 109.076 76.9412C109.605 76.2026 109.897 75.3641 109.898 74.5791C109.899 73.8243 109.628 73.2131 109.135 72.8584C108.841 72.6469 108.49 72.5392 108.091 72.5392Z" fill="#D3D5DD"/>
<path d="M110.494 82.0517L113.963 81.251L130.113 96.0263L128.56 97.1492L110.494 82.0517Z" fill="#D3D5DD"/>
<path d="M129.669 62.4529L131.243 50.1506C131.298 49.7155 130.964 49.3656 130.542 49.4169L128.268 49.6925C128.043 49.7198 127.836 49.8596 127.716 50.0649L120.887 61.7263C120.53 62.3375 120.633 63.0899 121.132 63.5044L122.354 64.5191C122.643 64.7594 123.028 64.8522 123.413 64.7752L128.466 63.7643C129.091 63.6404 129.587 63.0995 129.669 62.4529Z" fill="white"/>
<path d="M123.148 65.0413C122.8 65.0413 122.464 64.9216 122.202 64.7038L120.98 63.6891C120.388 63.1976 120.262 62.3212 120.682 61.6052L127.51 49.9438C127.668 49.6738 127.941 49.491 128.239 49.4546L130.513 49.1789C130.803 49.143 131.083 49.2507 131.269 49.4623C131.437 49.6537 131.513 49.916 131.479 50.1807L129.906 62.483C129.81 63.232 129.237 63.8552 128.513 63.9988L123.46 65.0097C123.356 65.0307 123.252 65.0413 123.148 65.0413ZM130.624 49.6509C130.606 49.6509 130.589 49.6518 130.571 49.6542L128.297 49.9299C128.146 49.9486 128.005 50.0443 127.921 50.1864L121.093 61.8474C120.793 62.3595 120.874 62.9788 121.284 63.3201L122.506 64.3348C122.736 64.5263 123.055 64.6028 123.366 64.5406L128.42 63.5297C128.947 63.4254 129.363 62.9702 129.433 62.4227L131.006 50.1199C131.023 49.9893 130.989 49.8682 130.911 49.7787C130.838 49.6963 130.736 49.6509 130.624 49.6509Z" fill="#D3D5DD"/>
</g>
<defs>
<clipPath id="clip0_85_253">
<rect width="141.333" height="141.333" fill="white" transform="translate(163.123 28.561)"/>
</clipPath>
<clipPath id="clip1_85_253">
<rect width="146.044" height="87.1555" fill="white" transform="matrix(0.914175 -0.405321 -0.40532 -0.914175 57.7915 286.146)"/>
</clipPath>
<clipPath id="clip2_85_253">
<rect width="180.789" height="159" fill="white" transform="matrix(-1 0 0 1 291.5 148.989)"/>
</clipPath>
<clipPath id="clip3_85_253">
<rect width="55.65" height="89.8954" fill="white" transform="translate(77.6299 158.697) rotate(-147.885)"/>
</clipPath>
<clipPath id="clip4_85_253">
<rect width="63.8945" height="49.1722" fill="white" transform="translate(88.6279 49.1721)"/>
</clipPath>
</defs>
</svg>
