<svg width="40" height="40" viewBox="0 0 40 40" fill="none" xmlns="http://www.w3.org/2000/svg">
<g clip-path="url(#clip0_85_200)">
<path d="M35.0269 22.0073C34.1425 21.4273 33.6536 20.7006 33.6536 19.9606C33.6536 19.2184 34.1425 18.4917 35.0247 17.914L39.5225 14.9784C39.9158 14.7206 40.0936 14.2295 39.9514 13.7806C39.8114 13.3295 39.4003 13.0228 38.918 13.0384L33.3403 13.1828C32.2603 13.1828 31.4203 12.8317 30.9803 12.1917C30.5669 11.5984 30.5314 10.7717 30.8692 9.86062L32.6936 4.96951C32.858 4.53396 32.7158 4.04062 32.3447 3.76062C31.9758 3.4784 31.4647 3.47396 31.0891 3.74951L26.7691 6.9184C25.038 8.18729 23.1625 7.63173 22.5492 5.64284L21.0069 0.662845C20.7336 -0.221599 19.2669 -0.221599 18.9936 0.662845L17.4558 5.64284C16.838 7.63396 14.9603 8.18951 13.2314 6.92062L8.91137 3.74951C8.53582 3.47396 8.02248 3.4784 7.65359 3.76062C7.28248 4.04062 7.14026 4.53396 7.3047 4.96951L9.12915 9.86062C9.46915 10.7717 9.42915 11.5984 9.02026 12.1917C8.57804 12.8317 7.74248 13.1828 6.53804 13.1828H6.52915L1.08026 13.0384C0.602481 13.0251 0.189148 13.3317 0.0469256 13.7806C-0.0930744 14.2295 0.0847034 14.7206 0.478037 14.9784L4.97359 17.914C5.85804 18.4917 6.34693 19.2184 6.34693 19.9606C6.34693 20.7006 5.85804 21.4295 4.97359 22.0073L0.478037 24.9406C0.0847034 25.1984 -0.0930744 25.6895 0.0469256 26.1384C0.189148 26.5895 0.600259 26.8495 1.08026 26.8806L6.65804 26.7384C7.73804 26.7384 8.57582 27.0873 9.02026 27.7251C9.42915 28.3228 9.46915 29.1495 9.12915 30.0606L7.3047 34.9495C7.14026 35.3851 7.28248 35.8806 7.65359 36.1606C8.02248 36.4428 8.53582 36.4473 8.91137 36.1695L13.2314 33.0006C14.9647 31.7317 16.8403 32.2917 17.4558 34.2762L18.9936 39.2562C19.1314 39.7006 19.538 40.0006 20.0003 40.0006C20.4625 40.0006 20.8692 39.7006 21.0069 39.2584L22.5469 34.2784C23.1603 32.2895 25.0358 31.7362 26.7669 33.0028L31.0869 36.1717C31.278 36.3117 31.5314 36.3895 31.7292 36.3762C32.3114 36.3673 32.8003 35.914 32.8003 35.3206C32.8003 35.0895 32.7247 34.874 32.5958 34.6984L30.8669 30.0628C30.5292 29.1517 30.5647 28.3251 30.978 27.7273C31.418 27.0917 32.258 26.7206 33.4669 26.7428L38.9158 26.8828C39.398 26.854 39.8069 26.5917 39.9491 26.1406C40.0891 25.6917 39.9114 25.2006 39.5203 24.9428L35.0269 22.0073ZM20.0003 27.7784C15.7114 27.7784 12.2225 24.2895 12.2225 20.0006C12.2225 15.7117 15.7114 12.2228 20.0003 12.2228C24.2892 12.2228 27.778 15.7117 27.778 20.0006C27.778 24.2895 24.2892 27.7784 20.0003 27.7784Z" fill="#FDEA08"/>
</g>
<defs>
<clipPath id="clip0_85_200">
<rect width="40" height="40" fill="white"/>
</clipPath>
</defs>
</svg>
