<svg width="40" height="40" viewBox="0 0 40 40" fill="none" xmlns="http://www.w3.org/2000/svg">
<path fill-rule="evenodd" clip-rule="evenodd" d="M33.3332 24.4444C33.2932 24.4444 33.2598 24.4555 33.2221 24.4555C32.6843 20.6866 29.4732 17.7777 25.5554 17.7777C21.2598 17.7777 17.7776 21.2599 17.7776 25.5555C17.7776 26.1688 17.2798 26.6666 16.6665 26.6666C16.0532 26.6666 15.5554 26.1688 15.5554 25.5555C15.5554 24.4555 15.7776 23.4177 16.1065 22.4266C15.5709 22.3022 15.0198 22.2222 14.4443 22.2222C10.1487 22.2222 6.6665 25.7044 6.6665 29.9999C6.6665 34.2955 10.1487 37.7777 14.4443 37.7777H33.3332C37.0132 37.7777 39.9998 34.7933 39.9998 31.111C39.9998 27.4288 37.0132 24.4444 33.3332 24.4444Z" fill="#EAEEEF"/>
<path fill-rule="evenodd" clip-rule="evenodd" d="M17.2689 19.9999C19.0667 17.3288 22.1022 15.5555 25.5556 15.5555C27.2067 15.5555 28.7756 15.9755 30.1644 16.7111C30.7533 15.7155 31.1111 14.5711 31.1111 13.3333C31.1111 9.65106 28.1289 6.66661 24.4444 6.66661C23.8378 6.66661 23.26 6.77328 22.7 6.92661C21.5044 4.16217 18.7578 2.22217 15.5556 2.22217C12.3533 2.22217 9.60889 4.16217 8.41556 6.92883C7.85556 6.77328 7.27333 6.66661 6.66667 6.66661C2.98222 6.66661 0 9.64884 0 13.3333C0 17.0133 2.98444 19.9999 6.66667 19.9999H17.2689Z" fill="#D3D5DD"/>
</svg>
