<svg width="32" height="32" viewBox="0 0 32 32" fill="none" xmlns="http://www.w3.org/2000/svg">
<path fill-rule="evenodd" clip-rule="evenodd" d="M25.7778 7.11117C25.3991 7.11117 25.0311 7.15739 24.672 7.22139C23.9182 4.10316 21.1271 1.77783 17.7778 1.77783C13.8507 1.77783 10.6667 4.96183 10.6667 8.88894C10.6667 9.37961 10.2684 9.77783 9.77778 9.77783C9.28711 9.77783 8.88889 9.37961 8.88889 8.88894C8.88889 7.78316 9.11644 6.73428 9.488 5.7565C8.74311 5.49161 7.94667 5.33339 7.11111 5.33339C3.184 5.33339 0 8.51739 0 12.4445C0 16.3716 3.184 19.5556 7.11111 19.5556H25.7778C29.2142 19.5556 32 16.7698 32 13.3334C32 9.89694 29.2142 7.11117 25.7778 7.11117Z" fill="#EAEEEF"/>
<path fill-rule="evenodd" clip-rule="evenodd" d="M17.7777 28.089C17.7777 29.2694 16.9831 30.2223 15.9999 30.2223C15.0168 30.2223 14.2222 29.2694 14.2222 28.089C14.2222 26.9103 15.9999 23.1112 15.9999 23.1112C15.9999 23.1112 17.7777 26.9103 17.7777 28.089Z" fill="#67A3E9"/>
<path fill-rule="evenodd" clip-rule="evenodd" d="M10.6669 28.089C10.6669 29.2694 9.87222 30.2223 8.88911 30.2223C7.90599 30.2223 7.11133 29.2694 7.11133 28.089C7.11133 26.9103 8.88911 23.1112 8.88911 23.1112C8.88911 23.1112 10.6669 26.9103 10.6669 28.089Z" fill="#67A3E9"/>
<path fill-rule="evenodd" clip-rule="evenodd" d="M24.8891 28.089C24.8891 29.2694 24.0944 30.2223 23.1113 30.2223C22.1282 30.2223 21.3335 29.2694 21.3335 28.089C21.3335 26.9103 23.1113 23.1112 23.1113 23.1112C23.1113 23.1112 24.8891 26.9103 24.8891 28.089Z" fill="#67A3E9"/>
</svg>
