<svg width="40" height="40" viewBox="0 0 40 40" fill="none" xmlns="http://www.w3.org/2000/svg">
<path fill-rule="evenodd" clip-rule="evenodd" d="M15.1125 29.8676C15.1125 31.0481 14.3178 32.0011 13.3346 32.0011C12.3514 32.0011 11.5566 31.0481 11.5566 29.8676C11.5566 28.6906 13.3346 24.8894 13.3346 24.8894C13.3346 24.8894 15.1125 28.6906 15.1125 29.8676Z" fill="#67A3E9"/>
<path fill-rule="evenodd" clip-rule="evenodd" d="M8.00067 29.8676C8.00067 31.0481 7.20594 32.0011 6.22275 32.0011C5.23956 32.0011 4.44482 31.0481 4.44482 29.8676C4.44482 28.6906 6.22275 24.8894 6.22275 24.8894C6.22275 24.8894 8.00067 28.6906 8.00067 29.8676Z" fill="#67A3E9"/>
<path fill-rule="evenodd" clip-rule="evenodd" d="M22.2243 29.8676C22.2243 31.0481 21.4296 32.0011 20.4464 32.0011C19.4632 32.0011 18.6685 31.0481 18.6685 29.8676C18.6685 28.6906 20.4464 24.8894 20.4464 24.8894C20.4464 24.8894 22.2243 28.6906 22.2243 29.8676Z" fill="#67A3E9"/>
<path fill-rule="evenodd" clip-rule="evenodd" d="M21.3351 12.4456C21.3031 12.4456 21.2764 12.4545 21.2462 12.4545C20.8159 9.44089 18.2468 7.11182 15.1123 7.11182C11.6756 7.11182 8.88961 9.89782 8.88961 13.3345C8.88961 13.8253 8.49136 14.2235 8.00065 14.2235C7.50994 14.2235 7.11169 13.8253 7.11169 13.3345C7.11169 12.4563 7.28948 11.6242 7.55261 10.8312C7.12413 10.7334 6.68321 10.6677 6.22273 10.6677C2.786 10.6677 0 13.4537 0 16.8922C0 20.3289 2.786 23.1149 6.22273 23.1149H21.3351C24.2793 23.1149 26.6688 20.7236 26.6688 17.7811C26.6688 14.8369 24.2793 12.4456 21.3351 12.4456Z" fill="#EAEEEF"/>
<path d="M29.3568 9.5636L31.7357 8.14304C31.9437 8.01503 32.0486 7.76613 31.9863 7.52966C31.9206 7.29675 31.7161 7.12963 31.4672 7.12785L28.5834 7.08696C28.0251 7.06385 27.5984 6.86472 27.3851 6.52514C27.1842 6.20867 27.1806 5.78196 27.3762 5.31615L28.4198 2.83061C28.5158 2.61193 28.4483 2.35057 28.2616 2.19767C28.0785 2.04655 27.8153 2.0341 27.6162 2.16923L25.3174 3.71602C24.4017 4.33474 23.4399 4.0076 23.1661 2.96929L22.4709 0.364636C22.35 -0.0976241 21.5944 -0.127849 21.4308 0.323743L20.533 2.86084C20.1738 3.87603 19.196 4.12316 18.3248 3.43333L16.1611 1.70697C15.9744 1.55762 15.7059 1.55051 15.5121 1.68563C15.3148 1.82253 15.2277 2.07677 15.3059 2.30435L16.1451 4.86633C16.2108 5.06724 16.2233 5.24859 16.2215 5.4246C17.2651 5.57395 18.243 5.93664 19.1249 6.45935C19.8805 5.98465 20.7783 5.72329 21.7348 5.76063C24.2577 5.86375 26.217 7.99548 26.1174 10.513C26.0925 11.1157 25.9467 11.6829 25.7121 12.202C26.4268 12.7639 27.0402 13.4466 27.4971 14.2378C27.7318 14.1329 28.0091 14.0689 28.3665 14.092L31.1756 14.2751C31.4263 14.2715 31.645 14.1435 31.7268 13.9124C31.8085 13.6848 31.7285 13.4288 31.5294 13.2901L29.2697 11.6776C28.8252 11.3611 28.5887 10.9771 28.603 10.5912C28.6207 10.209 28.8839 9.84629 29.3568 9.5636Z" fill="#FDEA08"/>
</svg>
