<svg width="40" height="40" viewBox="0 0 40 40" fill="none" xmlns="http://www.w3.org/2000/svg">
<path fill-rule="evenodd" clip-rule="evenodd" d="M32.2222 6.66667C31.7489 6.66667 31.2889 6.72444 30.8378 6.80444C29.8956 2.90667 26.4067 0 22.2222 0C17.3133 0 13.3333 3.98 13.3333 8.88889C13.3333 9.50222 12.8333 10 12.2222 10C11.6067 10 11.1111 9.50222 11.1111 8.88889C11.1111 7.50667 11.3933 6.19556 11.8578 4.97333C10.9289 4.64222 9.93111 4.44444 8.88889 4.44444C3.98 4.44444 0 8.42444 0 13.3333C0 18.2422 3.98 22.2222 8.88889 22.2222H32.2222C36.5156 22.2222 40 18.7422 40 14.4444C40 10.1467 36.5156 6.66667 32.2222 6.66667Z" fill="#EAEEEF"/>
<path fill-rule="evenodd" clip-rule="evenodd" d="M24.5713 24.4445H15.8736L11.1113 31.1111H17.4558L11.1113 40L28.8891 28.5711H21.2669L24.5713 24.4445Z" fill="#FDEA08"/>
</svg>
